<svg height='100px' width='100px'  fill="#1A1A1A" xmlns="http://www.w3.org/2000/svg" data-name="Layer 1" viewBox="0 0 100 100" x="0px" y="0px"><title>icons</title><path d="M51.5,48.21A39.25,39.25,0,0,1,69.27,15.79a1.52,1.52,0,0,0,0-2.59C48,2.6,21.51,11.3,11.93,33.48,3,54.13,12.75,78.91,33.38,87.91a42.11,42.11,0,0,0,38.83-3,1.51,1.51,0,0,0,0-2.59A39.24,39.24,0,0,1,51.5,48.21c0-1.93-3-1.93-3,0A42.28,42.28,0,0,0,70.7,84.93V82.34c-24.55,15-57.59-1-59.11-30.32-1.53-29.57,30-49.25,56.17-36.23V13.2a42.38,42.38,0,0,0-19.26,35C48.46,50.14,51.46,50.14,51.5,48.21Z"></path></svg>