<svg height='100px' width='100px'  fill="#D3D3D3" xmlns="http://www.w3.org/2000/svg" xmlns:xlink="http://www.w3.org/1999/xlink" version="1.1" x="0px" y="0px" viewBox="0 0 100 100" style="enable-background:new 0 0 100 100;" xml:space="preserve"><g><path d="M91.6,49.6l-4-1.1c-0.2,0-0.4,0-0.5,0l-3.7,1l-3.7-1c-0.2,0-0.4,0-0.5,0l-3.7,1l-3.7-1c-0.2,0-0.4,0-0.5,0l-3.7,1l-3.7-1   c-0.2,0-0.4,0-0.5,0l-3.7,1l-3.7-1c-0.2,0-0.4,0-0.5,0l-3.7,1l-3.7-1c-0.2,0-0.4,0-0.5,0l-3.7,1l-3.7-1c-0.2,0-0.4,0-0.5,0l-3.7,1   l-3.7-1c-0.2,0-0.4,0-0.5,0l-3.7,1l-3.7-1c-0.2,0-0.4,0-0.5,0l-3.7,1l-3.7-1c-0.2,0-0.4,0-0.5,0l-3.7,1l-3.7-1   c-0.5-0.1-1.1,0.2-1.2,0.7c-0.1,0.5,0.2,1.1,0.7,1.2l4,1.1c0.2,0,0.4,0,0.5,0l3.7-1l3.7,1c0.2,0,0.4,0,0.5,0l3.7-1l3.7,1   c0.2,0,0.4,0,0.5,0l3.7-1l3.7,1c0.2,0,0.4,0,0.5,0l3.7-1l3.7,1c0.2,0,0.4,0,0.5,0l3.7-1l3.7,1c0.2,0,0.4,0,0.5,0l3.7-1l3.7,1   c0.2,0,0.4,0,0.5,0l3.7-1l3.7,1c0.2,0,0.4,0,0.5,0l3.7-1l3.7,1c0.2,0,0.4,0,0.5,0l3.7-1l3.7,1c0.2,0,0.4,0,0.5,0l3.7-1l3.7,1   c0.1,0,0.2,0,0.3,0c0.4,0,0.8-0.3,1-0.7C92.5,50.3,92.2,49.7,91.6,49.6z"></path></g></svg>