<svg height='100px' width='100px'  fill="#D3D3D3" xmlns="http://www.w3.org/2000/svg" xmlns:xlink="http://www.w3.org/1999/xlink" version="1.1" x="0px" y="0px" viewBox="0 0 96 96" enable-background="new 0 0 96 96" xml:space="preserve"><path d="M80.148,47.462c-2.004-0.561-4.076-1.14-8.153-1.14c-4.078,0-6.149,0.579-8.153,1.14c-2.02,0.564-3.929,1.098-7.854,1.098  c-3.922,0-5.828-0.533-7.846-1.098c-2.002-0.561-4.072-1.14-8.148-1.14c-4.077,0-6.148,0.579-8.151,1.14  c-2.019,0.564-3.926,1.098-7.849,1.098c-3.921,0-5.828-0.533-7.846-1.098c-2.002-0.561-4.072-1.14-8.148-1.14v1.118  c3.921,0,5.828,0.533,7.846,1.099c2.002,0.561,4.073,1.139,8.148,1.139c4.077,0,6.148-0.578,8.151-1.139  c2.019-0.565,3.926-1.099,7.849-1.099c3.921,0,5.828,0.533,7.846,1.099c2.002,0.561,4.073,1.139,8.148,1.139  c4.079,0,6.15-0.578,8.154-1.139c2.02-0.565,3.928-1.099,7.853-1.099s5.832,0.533,7.852,1.099c2.004,0.561,4.075,1.139,8.153,1.139  V48.56C84.075,48.56,82.167,48.026,80.148,47.462z"></path></svg>