<svg height='100px' width='100px'  fill="#C3C3C3" xmlns="http://www.w3.org/2000/svg" data-name="Layer 1" viewBox="0 0 100 100" x="0px" y="0px"><title>tri 3</title><path d="M51.3,89.07,13.5,23.6,8,14.07,6.7,16.33H93.3L92,14.07,54.21,79.54l-5.5,9.53a1.5,1.5,0,0,0,2.59,1.51l37.8-65.47,5.5-9.53a1.51,1.51,0,0,0-1.3-2.26H6.7a1.51,1.51,0,0,0-1.3,2.26L43.2,81.05l5.5,9.53A1.5,1.5,0,0,0,51.3,89.07Z"></path><path d="M6.53,41.15l76,.31,10.9,0a1.5,1.5,0,0,0,0-3l-76-.31-10.9,0a1.5,1.5,0,0,0,0,3Z"></path></svg>